<mxfile host="Electron" modified="2024-01-26T07:09:37.407Z" agent="Mozilla/5.0 (Windows NT 10.0; Win64; x64) AppleWebKit/537.36 (KHTML, like Gecko) draw.io/22.0.2 Chrome/114.0.5735.289 Electron/25.8.4 Safari/537.36" etag="mKN0AZWpL9GKl9_nGUWe" version="22.0.2" type="device">
  <diagram name="第 1 页" id="Rvzh6XMO0-0e_0dUvY8q">
    <mxGraphModel dx="610" dy="628" grid="1" gridSize="10" guides="1" tooltips="1" connect="1" arrows="1" fold="1" page="1" pageScale="1" pageWidth="827" pageHeight="1169" math="0" shadow="0">
      <root>
        <mxCell id="0" />
        <mxCell id="1" parent="0" />
        <mxCell id="-QTGmXPEvj6ewSMW6Bha-2" value="1" style="rounded=0;whiteSpace=wrap;html=1;" vertex="1" parent="1">
          <mxGeometry x="140" y="350" width="50" height="50" as="geometry" />
        </mxCell>
        <mxCell id="-QTGmXPEvj6ewSMW6Bha-3" value="2" style="rounded=0;whiteSpace=wrap;html=1;" vertex="1" parent="1">
          <mxGeometry x="190" y="350" width="50" height="50" as="geometry" />
        </mxCell>
        <mxCell id="-QTGmXPEvj6ewSMW6Bha-4" value="0" style="rounded=0;whiteSpace=wrap;html=1;" vertex="1" parent="1">
          <mxGeometry x="388.5" y="350" width="50" height="50" as="geometry" />
        </mxCell>
        <mxCell id="-QTGmXPEvj6ewSMW6Bha-5" value="0" style="rounded=0;whiteSpace=wrap;html=1;" vertex="1" parent="1">
          <mxGeometry x="340" y="350" width="50" height="50" as="geometry" />
        </mxCell>
        <mxCell id="-QTGmXPEvj6ewSMW6Bha-6" value="0" style="rounded=0;whiteSpace=wrap;html=1;" vertex="1" parent="1">
          <mxGeometry x="290" y="350" width="50" height="50" as="geometry" />
        </mxCell>
        <mxCell id="-QTGmXPEvj6ewSMW6Bha-7" value="3" style="rounded=0;whiteSpace=wrap;html=1;" vertex="1" parent="1">
          <mxGeometry x="240" y="350" width="50" height="50" as="geometry" />
        </mxCell>
        <mxCell id="-QTGmXPEvj6ewSMW6Bha-8" value="2" style="rounded=0;whiteSpace=wrap;html=1;" vertex="1" parent="1">
          <mxGeometry x="140" y="480" width="50" height="50" as="geometry" />
        </mxCell>
        <mxCell id="-QTGmXPEvj6ewSMW6Bha-10" value="5" style="rounded=0;whiteSpace=wrap;html=1;" vertex="1" parent="1">
          <mxGeometry x="190" y="480" width="50" height="50" as="geometry" />
        </mxCell>
        <mxCell id="-QTGmXPEvj6ewSMW6Bha-11" value="6" style="rounded=0;whiteSpace=wrap;html=1;" vertex="1" parent="1">
          <mxGeometry x="240" y="480" width="50" height="50" as="geometry" />
        </mxCell>
        <mxCell id="-QTGmXPEvj6ewSMW6Bha-12" value="" style="endArrow=classic;html=1;rounded=0;" edge="1" parent="1">
          <mxGeometry width="50" height="50" relative="1" as="geometry">
            <mxPoint x="264.65999999999997" y="570" as="sourcePoint" />
            <mxPoint x="264.65999999999997" y="530" as="targetPoint" />
          </mxGeometry>
        </mxCell>
        <mxCell id="-QTGmXPEvj6ewSMW6Bha-13" value="" style="endArrow=classic;html=1;rounded=0;" edge="1" parent="1">
          <mxGeometry width="50" height="50" relative="1" as="geometry">
            <mxPoint x="264.65999999999997" y="440" as="sourcePoint" />
            <mxPoint x="264.65999999999997" y="400" as="targetPoint" />
          </mxGeometry>
        </mxCell>
        <mxCell id="-QTGmXPEvj6ewSMW6Bha-101" value="" style="endArrow=classic;html=1;rounded=0;" edge="1" parent="1">
          <mxGeometry width="50" height="50" relative="1" as="geometry">
            <mxPoint x="413" y="440" as="sourcePoint" />
            <mxPoint x="413" y="400" as="targetPoint" />
          </mxGeometry>
        </mxCell>
      </root>
    </mxGraphModel>
  </diagram>
</mxfile>
